<?xml version="1.0" encoding="utf-8"?>
<!-- Generator: Adobe Illustrator 22.1.0, SVG Export Plug-In . SVG Version: 6.00 Build 0)  -->
<svg version="1.1" id="Calque_1" xmlns="http://www.w3.org/2000/svg" xmlns:xlink="http://www.w3.org/1999/xlink" x="0px" y="0px"
	 viewBox="0 0 283.5 283.5" style="enable-background:new 0 0 283.5 283.5;" xml:space="preserve">
<style type="text/css">
	.st0{fill:#FFFFFF;stroke:#FFFFFF;stroke-width:0.7234;stroke-linecap:round;stroke-linejoin:round;}
</style>
<path class="st0" d="M257.7,86.6c-1.7-0.7-3.8-2.7-3.9-4.2c-0.4-7.5-0.2-15.1-0.2-23.3c10.2,3.1,19.2,5.9,28.3,8.6
	c0.5-0.8,1.1-1.6,1.6-2.5c-1.7-1.6-3.2-3.8-5.2-4.7c-6.5-2.7-13.2-4.8-19.7-7.3c-1.8-0.7-4.6-2.3-4.6-3.6c-0.3-13-0.2-26.1-0.2-39.8
	c10.1,2.5,19.1,4.7,28,6.9c2.2-5.5,0.7-8.1-4.1-9.5c-6.3-1.7-12.6-3.5-18.7-5.8c-5.7-2.1-11-1.8-16.9,0
	c-77.9,25.2-155.9,50.2-234,75C2,78.5,0,81.3,0,87.7C0.2,150.1,0.1,212.6,0.1,275c0,2.5,0.3,5,0.5,8.5c6.4-2.4,11.7-4.7,17.2-6.2
	c6.2-1.7,8-5,8-11.4c-0.3-53.8-0.2-107.6-0.2-161.3c0-2.8,0-5.5,0-9.6c14.8,4.9,28.2,9.7,41.7,13.7c6,1.8,8.3,4.4,8.2,11
	c-0.3,42.7-0.2,85.5-0.2,128.2c0,2.8,0,5.5,0,8.5c15.9-2.9,17-4,17-18.3c0-34.3,0-68.7,0-103c0-5.5,0-11,0-17.7
	c11.2,3.7,20.9,7.3,30.9,10.1c5.2,1.5,6.6,4.1,6.5,9.2c-0.2,31-0.1,61.9-0.1,92.9c0,2.7,0.4,5.4,0.7,8.1c8.6-0.4,11.5-4,11.3-12
	c-0.5-30-0.1-60-0.3-90c0-5.2,1.7-7.5,6.6-9.2c30.4-10.5,60.6-21.2,91-31.9c2-0.7,4.1-1.1,6.9-1.9c0.2,3.7,0.5,6.8,0.5,9.8
	c0,34.6,0,69.1,0,103.7c0,2.6,0,5.3,0.6,7.9c0.2,0.9,2,2.2,3.1,2.2c1.1,0,2.8-1.2,3.1-2.1c0.6-2,0.4-4.3,0.4-6.4
	c0-35.8,0-71.5,0-107.3c0-2.6,0-5.2,0-8.7c10,3.2,19.2,6.2,28.4,9.1c0.4-0.8,0.9-1.6,1.3-2.4c-1.7-1.4-3.3-3.2-5.3-4.1
	C271.3,91.6,264.4,89.4,257.7,86.6z M246.2,8.4c0,14.3,0.2,27.2-0.2,40.1c0,1.6-2.6,3.9-4.5,4.5c-20.3,6.9-40.8,13.6-61.2,20.1
	c-1.9,0.6-5.3,0.4-6.2-0.8c-7.5-10.2-14.6-20.8-22.3-32C183.5,29.7,214.2,19.3,246.2,8.4z M88.9,102.4c-2.6,0.8-6,1.2-8.3,0.2
	C64.4,95.8,48.3,88.7,30.8,81c2.9-1.2,4.6-2.1,6.5-2.7c32.9-11.2,65.9-22.2,98.7-33.6c5.6-1.9,8.7-0.9,12,3.8
	c6.3,9.1,13.3,17.7,20.9,27.6c-15,4.9-28.9,9.5-42.8,14.1C113.7,94.3,101.4,98.5,88.9,102.4z M152.4,118.7
	c-14.1,6.6-26.9,6.6-40-1.6c-4.4-2.8-9.6-4.3-16.6-7.4c15.8-5.3,29.6-10,43.4-14.7c9.8-3.3,19.7-6.4,29.4-10c4-1.5,6.5-1.3,9.1,2.5
	c3.9,5.7,8.3,11.1,13.2,17.4C177.5,109.6,164.4,113.1,152.4,118.7z M246.1,84c0,1-2.1,2.5-3.5,3c-14.6,5.2-29.1,10.3-43.8,15.1
	c-1.6,0.5-4.7-0.7-5.8-2.1c-4.4-5.7-8.3-11.8-13.1-18.7c22.2-7.5,43.4-14.6,66.3-22.3C246.3,68.1,246.4,76.1,246.1,84z"/>
</svg>
