<svg id="Calque_1" data-name="Calque 1" xmlns="http://www.w3.org/2000/svg" viewBox="0 0 59.09 89.77"><defs><style>.cls-1{fill:#fff;}</style></defs><title>habitat</title><rect class="cls-1" x="24.02" y="78.75" width="11.14" height="2.44"/><rect class="cls-1" x="7.71" y="78.76" width="11.17" height="2.42"/><rect class="cls-1" x="40.31" y="78.73" width="11.09" height="2.44"/><rect class="cls-1" x="40.28" y="18.89" width="11.1" height="2.47"/><rect class="cls-1" x="7.74" y="18.89" width="11.19" height="2.44"/><rect class="cls-1" x="24.01" y="18.89" width="11.16" height="2.45"/><path class="cls-1" d="M60.58,45.74a1.65,1.65,0,0,1-.09-.32c0-9,0-18,0-27a1.61,1.61,0,0,1,.49-1,3.42,3.42,0,0,0,0-5.35,1.6,1.6,0,0,1-.41-1.28c.29-1.31.72-2.58,1-3.59L58.86,2.8l-2.7,4.38c.33,1.07.68,2.29,1.07,3.5a1.22,1.22,0,0,1-.5,1.51,3.33,3.33,0,0,0-.12,5.15,2.21,2.21,0,0,1,.59,1.41q0,12.78,0,25.56v1.47H56C55.16,41.19,52,38,47.85,37.65c-.84-.07-2-.35-2.06,1s1,1.09,1.83,1.17c3.16.34,6,3.09,6,6H44.2V42.91c0-8,0-16.08,0-24.12a2.39,2.39,0,0,1,.66-1.5c1.28-1.34,1.61-3.5.24-4.62s-1-2.08-.61-3.24c.24-.79.58-1.56.8-2.14L42.59,2.77c-.85,1.4-1.78,2.9-2.69,4.39.32,1.08.65,2.27,1,3.44a1.32,1.32,0,0,1-.51,1.63,3.34,3.34,0,0,0-.1,5.08A2.38,2.38,0,0,1,41,18.82c0,6.91,0,13.83,0,20.75v6.17H31.52c0-.31,0-.47,0-.62a7.29,7.29,0,0,1,6.6-5.37c.76-.06,1.4-.25,1.37-1.14s-.72-1-1.47-1A8.83,8.83,0,0,0,32.31,40a9.73,9.73,0,0,0-3,5.85l-1.35-.09c0-9.16,0-18.24,0-27.31a2,2,0,0,1,.63-1.16c1.33-1.36,1.66-3.48.3-4.6s-1-2.15-.59-3.36c.2-.6.48-1.18.68-1.79a1,1,0,0,0,0-.75c-.92-1.38-1.88-2.73-2.68-3.89-.82,1.29-1.76,2.79-2.7,4.29.34,1.06.71,2.24,1.09,3.41a1.34,1.34,0,0,1-.53,1.64,3.22,3.22,0,0,0-.12,5,2.07,2.07,0,0,1,.73,1.75q0,12.84,0,25.68v1.15H23.17c-.13-.53-.22-1-.34-1.46a9.25,9.25,0,0,0-8.55-6.71c-.73,0-1.32.19-1.36,1s.54,1.08,1.26,1.13l.71,0a6.85,6.85,0,0,1,6,6H11.74a1.25,1.25,0,0,1-.1-.31q0-13.5,0-27a1.74,1.74,0,0,1,.58-1.06,3.46,3.46,0,0,0-.07-5.28,1.71,1.71,0,0,1-.45-1.39c.28-1.27.75-2.5,1.06-3.48-1-1.63-1.93-3.12-2.71-4.4C9.21,4.16,8.28,5.67,7.33,7.2c.33,1,.72,2.2,1.08,3.38a1.35,1.35,0,0,1-.51,1.64,3.21,3.21,0,0,0-.22,4.87,2.45,2.45,0,0,1,.8,2.08q0,35.94,0,71.88v1.48h3.16V47.83h9.26c-.41,3.37-3,5.71-6.62,6.07-.78.07-1.41.27-1.34,1.14s.72,1.05,1.49,1a9,9,0,0,0,8.13-6,21.15,21.15,0,0,0,.67-2.24h1.55V92.52h3.15v-8q0-17.87,0-35.75c0-1.19.51-1.22,1.38-.94.12.47.2.9.32,1.32A9.14,9.14,0,0,0,37.93,56c.79.06,1.52,0,1.59-1s-.61-1-1.35-1.14a11.44,11.44,0,0,1-3.27-1,6.64,6.64,0,0,1-3.42-5.07H41V92.52h3.22V47.82h9.51a3.27,3.27,0,0,1,0,.45,7.1,7.1,0,0,1-6.62,5.63c-.77.07-1.4.26-1.33,1.15s.75,1.06,1.51,1a10.7,10.7,0,0,0,1.88-.32,8.92,8.92,0,0,0,6.62-7c.06-.3.16-.59.26-.92l1.2.07V92.54h3.21V91.08q0-20.94,0-41.88C60.47,48,60.58,45.74,60.58,45.74Z" transform="translate(-4.86 -2.77)"/><rect class="cls-1" y="18.78" width="2.59" height="2.64"/><rect class="cls-1" x="56.5" y="18.8" width="2.59" height="2.64"/><rect class="cls-1" y="78.76" width="2.59" height="2.64"/><rect class="cls-1" x="56.5" y="78.76" width="2.59" height="2.64"/><path class="cls-1" d="M60.48,18.42a1.61,1.61,0,0,1,.49-1,3.42,3.42,0,0,0,0-5.35,1.6,1.6,0,0,1-.41-1.28c.29-1.31.72-2.58,1-3.59L58.86,2.8l-2.7,4.38c.33,1.07.68,2.29,1.07,3.5a1.22,1.22,0,0,1-.5,1.51,3.33,3.33,0,0,0-.12,5.15,2.21,2.21,0,0,1,.59,1.41q0,12.78,0,25.56v1.47H56C55.16,41.19,52,38,47.85,37.65c-.84-.07-2-.35-2.06,1s1,1.09,1.83,1.17c3.16.34,6,3.09,6,6H44.2V42.91c0-8,0-16.08,0-24.12a2.39,2.39,0,0,1,.66-1.5c1.28-1.34,1.61-3.5.24-4.62s-1-2.08-.61-3.24c.24-.79.58-1.56.8-2.14L42.59,2.77c-.85,1.4-1.78,2.9-2.69,4.39.32,1.08.65,2.27,1,3.44a1.32,1.32,0,0,1-.51,1.63,3.34,3.34,0,0,0-.1,5.08A2.38,2.38,0,0,1,41,18.82c0,6.91,0,13.83,0,20.75v6.17H31.52c0-.31,0-.47,0-.62a7.29,7.29,0,0,1,6.6-5.37c.76-.06,1.4-.25,1.37-1.14s-.72-1-1.47-1A8.83,8.83,0,0,0,32.31,40a9.73,9.73,0,0,0-3,5.85l-1.35-.09c0-9.16,0-18.24,0-27.31a2,2,0,0,1,.63-1.16c1.33-1.36,1.66-3.48.3-4.6s-1-2.15-.59-3.36c.2-.6.48-1.18.68-1.79a1,1,0,0,0,0-.75c-.92-1.38-1.88-2.73-2.68-3.89-.82,1.29-1.76,2.79-2.7,4.29.34,1.06.71,2.24,1.09,3.41a1.34,1.34,0,0,1-.53,1.64,3.22,3.22,0,0,0-.12,5,2.07,2.07,0,0,1,.73,1.75q0,12.84,0,25.68v1.15H23.17c-.13-.53-.22-1-.34-1.46a9.25,9.25,0,0,0-8.55-6.71c-.73,0-1.32.19-1.36,1s.54,1.08,1.26,1.13l.71,0a6.85,6.85,0,0,1,6,6H11.74a1.25,1.25,0,0,1-.1-.31q0-13.5,0-27a1.74,1.74,0,0,1,.58-1.06,3.46,3.46,0,0,0-.07-5.28,1.71,1.71,0,0,1-.45-1.39c.28-1.27.75-2.5,1.06-3.48-1-1.63-1.93-3.12-2.71-4.4C9.21,4.16,8.28,5.67,7.33,7.2c.33,1,.72,2.2,1.08,3.38a1.35,1.35,0,0,1-.51,1.64,3.21,3.21,0,0,0-.22,4.87,2.45,2.45,0,0,1,.8,2.08q0,35.94,0,71.88v1.48h3.16V47.83h9.26c-.41,3.37-3,5.71-6.62,6.07-.78.07-1.41.27-1.34,1.14s.72,1.05,1.49,1a9,9,0,0,0,8.13-6,21.15,21.15,0,0,0,.67-2.24h1.55V92.52h3.15v-8q0-17.87,0-35.75c0-1.19.51-1.22,1.38-.94.12.47.2.9.32,1.32A9.14,9.14,0,0,0,37.93,56c.79.06,1.52,0,1.59-1s-.61-1-1.35-1.14a11.44,11.44,0,0,1-3.27-1,6.64,6.64,0,0,1-3.42-5.07H41V92.52h3.22V47.82h9.51a3.27,3.27,0,0,1,0,.45,7.1,7.1,0,0,1-6.62,5.63c-.77.07-1.4.26-1.33,1.15s.75,1.06,1.51,1a10.7,10.7,0,0,0,1.88-.32,8.92,8.92,0,0,0,6.62-7c.06-.3.16-.59.26-.92l1.2.07V92.54h3.21V91.08C60.46,77.12,60.46,27.42,60.48,18.42Z" transform="translate(-4.86 -2.77)"/><path class="cls-1" d="M23.8,21.66V24.1H12.61V21.66Z" transform="translate(-4.86 -2.77)"/><path class="cls-1" d="M28.88,24.12V21.67H40v2.45Z" transform="translate(-4.86 -2.77)"/><path class="cls-1" d="M45.14,24.13V21.66H56.25v2.47Z" transform="translate(-4.86 -2.77)"/><path class="cls-1" d="M28.89,84V81.52H40V84Z" transform="translate(-4.86 -2.77)"/><path class="cls-1" d="M12.58,84V81.53H23.75V84Z" transform="translate(-4.86 -2.77)"/><path class="cls-1" d="M45.17,84V81.51h11.1V84Z" transform="translate(-4.86 -2.77)"/></svg>