<?xml version="1.0" encoding="utf-8"?>
<!-- Generator: Adobe Illustrator 22.1.0, SVG Export Plug-In . SVG Version: 6.00 Build 0)  -->
<svg version="1.1" id="Calque_1" xmlns="http://www.w3.org/2000/svg" xmlns:xlink="http://www.w3.org/1999/xlink" x="0px" y="0px"
	 viewBox="0 0 283.5 283.5" style="enable-background:new 0 0 283.5 283.5;" xml:space="preserve">
<style type="text/css">
	.st0{fill:none;stroke:#FFFFFF;stroke-width:5.7004;stroke-linecap:round;stroke-linejoin:round;stroke-miterlimit:10;}
	.st1{fill:none;stroke:#FFFFFF;stroke-width:6.8003;stroke-linecap:round;stroke-linejoin:round;stroke-miterlimit:10;}
	.st2{fill:none;stroke:#FFFFFF;stroke-width:2.8502;stroke-linecap:round;stroke-linejoin:round;stroke-miterlimit:10;}
</style>
<image style="display:none;overflow:visible;" width="355" height="355" xlink:href="C:\Users\stagiaire\Creative Cloud Files\mch\kiosque.jpg"  transform="matrix(1.0347 0 0 0.8724 -46.9786 -28.8987)">
</image>
<ellipse class="st0" cx="136.4" cy="75.1" rx="113" ry="15.9"/>
<path class="st1" d="M178.1,33c0,0-8.8-25.7-41.1-27.5c0,0-30.9-0.5-42.1,27.5"/>
<path class="st1" d="M178.1,33"/>
<path class="st1" d="M94.8,33"/>
<line class="st0" x1="23.4" y1="78" x2="23.4" y2="258.1"/>
<line class="st0" x1="49.6" y1="85.3" x2="49.8" y2="271.6"/>
<line class="st0" x1="61.9" y1="87.1" x2="62.7" y2="245.9"/>
<line class="st0" x1="233.6" y1="67" x2="239.1" y2="266.4"/>
<polyline class="st0" points="129.4,240.7 130,91.1 133.5,41.5 136.9,5.6 146,41.3 148.6,91.1 150.6,280.8 "/>
<line class="st0" x1="249.5" y1="72.7" x2="251" y2="254"/>
<g>
	<path class="st1" d="M167.2,91.1c6.7-15.7-16.6-49.5-16.6-49.5l-13.7-36c0,0,19.5,24.5,19.2,34.4c0,0,35.4,32,28.2,49.6"/>
	<path class="st1" d="M201.8,88.1c3.5-28.2-40.7-49.2-40.7-49.2c2-16.8-24.2-33.3-24.2-33.3s24.9,9,32.5,30.9c0,0,57,26.5,46.8,49.9
		"/>
	<path class="st1" d="M229.2,84.2c12.3-26.9-56.3-49-56.3-49c-2.6-19.2-36-29.7-36-29.7s36.4,7.5,41.1,27.5c0,0,77.1,15.3,69.6,44.9
		"/>
</g>
<g>
	<path class="st1" d="M105.5,91.1c-6.7-15.7,16.6-49.5,16.6-49.5l13.7-36c0,0-19.5,24.5-19.2,34.4c0,0-35.4,32-28.2,49.6"/>
	<path class="st1" d="M70.9,88.1c-3.5-28.2,40.7-49.2,40.7-49.2c-2-16.8,24.2-33.3,24.2-33.3s-24.9,9-32.5,30.9
		c0,0-57,26.5-46.8,49.9"/>
	<path class="st1" d="M43.5,84.2c-12.3-26.9,56.3-49,56.3-49c2-14.8,21.1-24.7,36-29.7c-8.7,2.4-17.5,5-25.1,9.4
		c-3.9,2.2-7.4,4.9-10.2,8c-3.6,4-3.7,8.6-9.3,10.9c-3.4,1.4-7.8,1.8-11.4,2.8c-9.2,2.4-18.3,5.2-26.9,8.8C38.4,51.6,21,62.3,25,78"
		/>
</g>
<line class="st1" x1="62.3" y1="168" x2="129.4" y2="168"/>
<path class="st1" d="M150.6,264.2c0,0,85.8-7.4,88.1-12.6"/>
<path class="st1" d="M62.3,234.6c0,0,57.4-6.1,67.2-2.6"/>
<path class="st1" d="M23.4,251.6c0,0,14.8,6.1,26.3,7.4"/>
<path class="st0" d="M161.1,168V99.8c0,0,30.9-58,66.1,0V168"/>
<path class="st0" d="M67.4,168c0-14.6,0-29.2,0-43.8c0-4.5,1.2-7,4.1-10.5c2.3-2.8,5-5.4,8.1-7.5c7.8-5.4,17.3-6.3,25.8-1.3
	c5.2,3.1,10.7,7.3,13.5,12.3c2.4,4.2,1.3,9.6,1.3,14.2c0,10.4,0,20.8,0,31.2c0,1.8,0,3.7,0,5.5"/>
<path class="st0" d="M42.5,170.6c0-14.4,0-28.8,0-43.1c0-7.5,0.6-15.4-0.3-22.8c-0.4-3.7-2.6-7.4-4.3-10.8c-1.4-2.8-3.4-7.5-6.8-8.9
	c-4.4-1.8-6.6,3.5-7.7,6.2c0,12.4,0,24.9,0,37.3c0,9,0,18,0,27c0,3.3,0,6.6,0,9.8c0,1.1-0.7,4.9,0.3,5.6c0.8,0.6,4.7,0,5.7,0
	c2.9,0,5.9-0.1,8.8-0.1c3.8-0.1,7.7-0.1,11.5-0.2"/>
<path class="st0" d="M245.3,168c0,0,0-55.6,0-55.6c0-3.5-2.8-8.3-4.9-11.2c-4.5-6.1-10.8-6-16.4-0.8c-2.4,2.2-4.4,4.8-6.2,7.3
	c-3.4,4.9-5.6,8.5-5.6,14.2c0,4.2,0,8.3,0,12.5c0,9.3,0,18.7,0,28c0,1.9,0,3.8,0,5.7"/>
<line class="st0" x1="203.9" y1="87.9" x2="203.4" y2="242"/>
<path class="st1" d="M251,242.8c0,0-17.6-7.6-47.3-10.1"/>
<path class="st1" d="M250.6,203.9c0,0-41.5-4.7-46.9-3.4"/>
<line class="st1" x1="150.6" y1="215.8" x2="237.6" y2="211.4"/>
<line class="st1" x1="203.7" y1="168" x2="203.7" y2="259.9"/>
<line class="st1" x1="62.5" y1="202.2" x2="129.4" y2="200.3"/>
<line class="st1" x1="93.7" y1="168" x2="94.5" y2="231.7"/>
<path class="st1" d="M49.7,213.6c0,0-19.6,0-26.3-2.2"/>
<polyline class="st1" points="251.1,168 239.7,168 149.4,168 "/>
<g>
	<g>
		<path class="st2" d="M162.6,197.4c-0.9-0.2-1.8,0.3-2,1c-0.3,0.9,0.4,1.8,1.5,2.1c1.4,0.3,2.8-0.4,3.1-1.5
			c0.4-1.4-0.6-2.9-2.3-3.2c-2.1-0.5-4.3,0.6-4.9,2.4c-0.7,2.2,0.9,4.5,3.6,5.1c3.3,0.7,6.7-1,7.6-3.8c1.1-3.5-1.5-7-5.6-7.9
			c-5.2-1.1-10.5,1.5-11.9,5.9c-1.7,5.4,2.7,13.5,8.8,15.2c0,0,12.6,5.6,28.9-9.8"/>
	</g>
	<path class="st2" d="M181.6,179.2c-0.3-0.7,0.1-1.5,0.9-1.8c1.1-0.3,2.2,0.1,2.7,1c0.5,1.1-0.1,2.3-1.4,2.8
		c-1.6,0.5-3.5-0.1-4.2-1.5c-0.8-1.7,0.2-3.6,2.2-4.3c2.6-0.8,5.5,0.2,6.5,2.4c1.3,2.7-0.3,5.7-3.5,6.7c-4,1.3-8.6-0.4-10.2-3.7
		c-2-4.2,0.4-8.9,5.4-10.5c6.3-2,16.6,0.5,19.2,5.5c1.3,2.4,8.9,11.8-9.9,27.2"/>
</g>
<g>
	<g>
		<path class="st2" d="M70.1,189c-0.5-0.1-1,0.2-1.1,0.7c-0.2,0.6,0.2,1.3,0.8,1.5c0.8,0.2,1.6-0.3,1.8-1.1c0.2-1-0.3-2-1.3-2.3
			c-1.2-0.3-2.4,0.4-2.7,1.7c-0.4,1.6,0.5,3.1,2,3.5c1.9,0.5,3.8-0.7,4.3-2.6c0.6-2.4-0.8-4.9-3.2-5.5c-2.9-0.8-5.9,1.1-6.7,4.1
			c-0.9,3.8,1.5,9.4,5,10.6c0,0,7.1,3.9,16.3-6.8"/>
	</g>
	<path class="st2" d="M80.7,176.3c-0.2-0.5,0-1,0.5-1.2c0.6-0.2,1.3,0.1,1.5,0.7c0.3,0.8-0.1,1.6-0.8,1.9c-0.9,0.4-2-0.1-2.3-1.1
		c-0.5-1.2,0.1-2.5,1.3-3c1.4-0.6,3.1,0.2,3.7,1.7c0.7,1.9-0.2,4-2,4.7c-2.3,0.9-4.8-0.2-5.7-2.6c-1.1-2.9,0.2-6.2,3.1-7.4
		c3.5-1.4,9.3,0.3,10.8,3.8c0.7,1.6,5,8.2-5.6,19"/>
</g>
<g>
	<g>
		<path class="st2" d="M230.4,195.5c0.6-0.2,1.1,0.2,1.3,0.9c0.2,0.9-0.2,1.7-0.9,1.9c-0.9,0.3-1.8-0.4-2-1.4
			c-0.3-1.3,0.4-2.7,1.5-3c1.4-0.4,2.7,0.6,3.1,2.2c0.4,2.1-0.6,4.2-2.3,4.7c-2.1,0.7-4.3-0.9-4.8-3.5c-0.7-3.2,0.9-6.5,3.6-7.4
			c3.3-1,6.7,1.4,7.6,5.5c1.1,5.1-1.7,12.5-5.6,14.2c0,0-8,5.3-18.4-9.1"/>
	</g>
	<path class="st2" d="M218.3,178.5c0.2-0.7,0-1.4-0.6-1.6c-0.7-0.3-1.4,0.1-1.7,0.9c-0.3,1,0.1,2.2,0.9,2.6c1,0.5,2.2-0.1,2.6-1.4
		c0.5-1.6-0.1-3.4-1.4-4c-1.6-0.8-3.5,0.2-4.1,2.2c-0.8,2.5,0.2,5.3,2.2,6.3c2.5,1.2,5.4-0.3,6.5-3.5c1.3-3.9-0.3-8.3-3.5-9.8
		c-4-1.9-10.6,0.5-12.2,5.1c-0.8,2.2-5.7,10.9,6.3,25.3"/>
</g>
<g>
	<g>
		<path class="st2" d="M120.9,188.5c0.6-0.1,1.1,0.2,1.3,0.7c0.2,0.6-0.2,1.3-0.9,1.4c-0.9,0.2-1.8-0.3-2-1c-0.3-1,0.4-2,1.5-2.2
			c1.4-0.3,2.7,0.4,3.1,1.6c0.4,1.5-0.6,3.1-2.3,3.5c-2.1,0.5-4.3-0.7-4.8-2.6c-0.7-2.4,0.9-4.8,3.6-5.4c3.3-0.8,6.7,1,7.6,4
			c1.1,3.7-1.7,9.2-5.6,10.4c0,0-8,3.8-18.4-6.7"/>
	</g>
	<path class="st2" d="M108.8,176.1c0.2-0.5,0-1-0.6-1.2c-0.7-0.2-1.4,0.1-1.7,0.7c-0.3,0.7,0.1,1.6,0.9,1.9c1,0.4,2.2-0.1,2.6-1
		c0.5-1.2-0.1-2.5-1.4-2.9c-1.6-0.6-3.5,0.2-4.1,1.6c-0.8,1.8,0.2,3.9,2.2,4.6c2.5,0.9,5.4-0.2,6.5-2.5c1.3-2.9-0.3-6.1-3.5-7.2
		c-4-1.4-10.6,0.3-12.2,3.7c-0.8,1.6-5.7,8,6.3,18.5"/>
</g>
<g>
	<g>
		<path class="st2" d="M43.1,197.6c0.4-0.2,0.8,0.2,0.9,0.9c0.1,0.8-0.2,1.7-0.7,1.9c-0.6,0.3-1.3-0.4-1.5-1.4
			c-0.2-1.3,0.3-2.7,1.1-3c1-0.4,2,0.6,2.3,2.2c0.3,2.1-0.4,4.2-1.7,4.7c-1.6,0.7-3.2-0.9-3.6-3.5c-0.5-3.2,0.7-6.5,2.7-7.3
			c2.5-1,5,1.4,5.6,5.4c0.8,5-1.3,12.4-4.2,14.1c0,0-6,5.2-13.7-9"/>
	</g>
	<path class="st2" d="M34.1,180.7c0.2-0.7,0-1.4-0.4-1.6c-0.5-0.3-1.1,0.1-1.3,0.9c-0.2,1,0.1,2.2,0.7,2.6c0.8,0.5,1.7-0.1,2-1.4
		c0.4-1.6-0.1-3.4-1.1-4c-1.2-0.8-2.6,0.2-3.1,2.2c-0.6,2.5,0.1,5.3,1.7,6.2c1.9,1.2,4.1-0.3,4.8-3.4c1-3.9-0.2-8.2-2.6-9.7
		c-3-1.9-7.9,0.5-9.1,5c-0.6,2.2-4.2,10.9,4.7,25.1"/>
</g>
<g>
	<g>
		<path class="st2" d="M184.3,249.2c-0.1,0.8,0.4,1.5,1.3,1.7c1,0.1,2-0.5,2.2-1.5c0.2-1.2-0.7-2.4-2-2.6c-1.6-0.2-3.2,0.8-3.4,2.4
			c-0.3,1.9,1.1,3.8,3.1,4c2.5,0.4,4.9-1.3,5.3-3.8c0.5-3-1.7-5.9-4.8-6.3c-4-0.6-7.7,2.1-8.3,5.9c-0.8,4.8,2.6,9.2,7.6,9.9
			c6.2,0.9,14.8-3.8,16.2-9.5c0,0,5.2-11.8-13.4-24.5"/>
	</g>
	<path class="st2" d="M162.3,234.4c-0.8,0.4-1.7,0.1-2-0.6c-0.5-0.9-0.1-2,0.9-2.5c1.2-0.6,2.6-0.2,3.2,1c0.7,1.4,0.1,3.1-1.3,3.9
		c-1.8,0.9-4.1,0.2-5-1.5c-1.2-2.2-0.2-4.9,2.1-6c2.9-1.4,6.4-0.4,7.8,2.3c1.8,3.4,0.3,7.6-3.2,9.4c-4.5,2.2-10,0.6-12.2-3.7
		c-2.8-5.3-0.9-14.8,4.4-17.7c2.5-1.4,12.3-9.2,31.1,5.8"/>
</g>
<g>
	<g>
		<path class="st2" d="M82.9,224.5c-0.1,0.5,0.2,1,0.7,1.1c0.6,0.1,1.1-0.4,1.2-1c0.1-0.8-0.4-1.6-1.1-1.7c-0.9-0.1-1.8,0.5-1.9,1.6
			c-0.2,1.3,0.6,2.4,1.7,2.6c1.4,0.2,2.8-0.9,3-2.4c0.3-2-0.9-3.8-2.7-4.1c-2.2-0.4-4.4,1.3-4.7,3.8c-0.4,3.1,1.5,6,4.3,6.4
			c3.5,0.6,8.3-2.5,9.1-6.2c0,0,2.9-7.7-7.6-15.9"/>
	</g>
	<path class="st2" d="M70.5,214.9c-0.4,0.2-0.9,0.1-1.2-0.4c-0.3-0.6-0.1-1.3,0.5-1.6c0.7-0.4,1.5-0.1,1.8,0.6
		c0.4,0.9,0.1,2-0.8,2.5c-1,0.6-2.3,0.2-2.8-1c-0.7-1.4-0.1-3.2,1.2-3.9c1.6-0.9,3.6-0.2,4.4,1.5c1,2.2,0.2,4.9-1.8,6.1
		c-2.5,1.5-5.6,0.4-6.9-2.4c-1.6-3.5-0.5-9.6,2.5-11.5c1.4-0.9,7-6,17.6,3.8"/>
</g>
<g>
	<g>
		<path class="st2" d="M216.1,245.8c0.1,0.8-0.3,1.5-0.8,1.6c-0.6,0.1-1.2-0.5-1.3-1.5c-0.1-1.2,0.4-2.3,1.2-2.5
			c1-0.2,1.9,0.8,2.1,2.3c0.2,1.9-0.6,3.6-1.9,3.9c-1.6,0.3-3-1.3-3.3-3.6c-0.3-2.9,1-5.7,3-6.1c2.4-0.5,4.7,2,5.1,5.6
			c0.5,4.6-1.6,8.8-4.6,9.5c-3.8,0.8-9-3.7-9.9-9.1c0,0-3.2-11.4,8.2-23.6"/>
	</g>
	<path class="st2" d="M229.5,231.5c0.5,0.4,1,0.1,1.2-0.6c0.3-0.9,0.1-1.9-0.5-2.4c-0.7-0.6-1.6-0.2-2,0.9c-0.5,1.3-0.1,3,0.8,3.7
		c1.1,0.9,2.5,0.2,3.1-1.4c0.7-2.1,0.1-4.7-1.3-5.8c-1.8-1.4-3.9-0.4-4.8,2.3c-1.1,3.3-0.2,7.3,2,9.1c2.7,2.2,6.1,0.6,7.4-3.5
		c1.7-5.1,0.5-14.2-2.7-17c-1.5-1.3-7.5-8.9-19,5.6"/>
</g>
<g>
	<g>
		<path class="st2" d="M107.1,223.6c0.1,0.5-0.3,1-0.8,1.1c-0.7,0.1-1.3-0.3-1.4-1c-0.1-0.8,0.4-1.5,1.3-1.7c1-0.1,2,0.5,2.2,1.5
			c0.2,1.2-0.7,2.4-2,2.6c-1.6,0.2-3.1-0.8-3.4-2.4c-0.3-2,1.1-3.8,3.1-4.1c2.5-0.4,4.9,1.3,5.3,3.8c0.5,3.1-1.6,5.9-4.8,6.3
			c-3.9,0.6-9.3-2.5-10.2-6.1c0,0-3.3-7.6,8.5-15.8"/>
	</g>
	<path class="st2" d="M121,214.1c0.5,0.2,1.1,0.1,1.3-0.4c0.3-0.6,0.1-1.3-0.5-1.6c-0.7-0.4-1.6-0.1-2,0.6c-0.5,0.9-0.1,2,0.8,2.5
		c1.2,0.6,2.6,0.2,3.2-1c0.7-1.4,0.1-3.1-1.3-3.9c-1.8-0.9-4-0.2-4.9,1.5c-1.1,2.2-0.2,4.9,2,6c2.8,1.4,6.3,0.4,7.7-2.3
		c1.8-3.4,0.6-9.5-2.8-11.3c-1.6-0.9-7.8-5.9-19.6,3.7"/>
</g>
<g>
	<g>
		<path class="st2" d="M33,244.1c0.1,0.7-0.2,1.4-0.6,1.5c-0.5,0.1-1-0.5-1.1-1.3c-0.1-1.1,0.3-2.1,1-2.3c0.8-0.2,1.5,0.7,1.7,2.1
			c0.2,1.7-0.5,3.3-1.5,3.6c-1.2,0.3-2.4-1.2-2.6-3.3c-0.2-2.7,0.8-5.2,2.3-5.6c1.9-0.5,3.7,1.8,4,5.1c0.4,4.2-1.3,8.1-3.7,8.7
			c-3,0.8-7.1-3.4-7.8-8.3c0,0-2.5-10.4,6.5-21.5"/>
	</g>
	<path class="st2" d="M43.7,231.1c0.4,0.3,0.8,0.1,1-0.5c0.2-0.8,0-1.8-0.4-2.2c-0.6-0.5-1.3-0.1-1.5,0.8c-0.4,1.2-0.1,2.7,0.6,3.4
		c0.9,0.8,2,0.2,2.4-1.3c0.6-1.9,0.1-4.3-1-5.3c-1.4-1.3-3.1-0.3-3.8,2.1c-0.9,3-0.2,6.7,1.6,8.3c2.2,2,4.8,0.5,5.9-3.2
		c1.4-4.7,0.4-13-2.1-15.5c-1.2-1.2-6-8.1-15.1,5.1"/>
</g>
</svg>
