<?xml version="1.0" encoding="utf-8"?>
<!-- Generator: Adobe Illustrator 22.1.0, SVG Export Plug-In . SVG Version: 6.00 Build 0)  -->
<svg version="1.1" id="Calque_1" xmlns="http://www.w3.org/2000/svg" xmlns:xlink="http://www.w3.org/1999/xlink" x="0px" y="0px"
	 viewBox="0 0 100 100" style="enable-background:new 0 0 100 100;" xml:space="preserve">
<style type="text/css">
	.st0{fill:#FFFFFF;}
</style>
<g>
	<rect x="42.3" y="87.7" class="st0" width="15.6" height="2.7"/>
	<rect x="19.4" y="87.7" class="st0" width="15.6" height="2.7"/>
	<rect x="65.1" y="87.7" class="st0" width="15.5" height="2.7"/>
	<rect x="65" y="21" class="st0" width="15.5" height="2.8"/>
	<rect x="19.5" y="21" class="st0" width="15.7" height="2.7"/>
	<rect x="42.3" y="21" class="st0" width="15.6" height="2.7"/>
	<path class="st0" d="M86.7,47.9c-0.1-0.2-0.1-0.3-0.1-0.4c0-10,0-20.1,0-30.1c0-0.4,0.3-0.8,0.7-1.1c2.4-1.9,2.4-4.1-0.1-6
		c-0.4-0.3-0.7-1-0.6-1.4c0.4-1.5,1-2.9,1.4-4c-1.4-1.8-2.6-3.5-3.7-4.9c-1.2,1.5-2.5,3.2-3.8,4.9c0.5,1.2,0.9,2.6,1.5,3.9
		c0.3,0.7,0.1,1.2-0.7,1.7c-2.4,1.6-2.3,4-0.2,5.7c0.5,0.4,0.8,1,0.8,1.6c0.1,9.5,0,19,0,28.5c0,0.5,0,1,0,1.6h-1.7
		c-1.2-5.1-5.7-8.7-11.4-9.1c-1.2-0.1-2.8-0.4-2.9,1.1c-0.1,1.4,1.4,1.2,2.6,1.3c4.4,0.4,8.3,3.4,8.5,6.7H63.7c0-1.1,0-2.2,0-3.2
		c0-9,0-17.9,0-26.9c0-0.6,0.4-1.3,0.9-1.7c1.8-1.5,2.2-3.9,0.3-5.1c-1.8-1.2-1.4-2.3-0.9-3.6C64.5,6.5,65,5.7,65.3,5
		c-1.4-1.9-2.7-3.5-3.8-5c-1.2,1.6-2.5,3.2-3.8,4.9c0.5,1.2,0.9,2.5,1.5,3.8c0.3,0.8,0.1,1.3-0.7,1.8c-2.3,1.6-2.2,4-0.1,5.7
		c0.5,0.4,0.9,1.1,0.9,1.7c0.1,7.7,0,15.4,0,23.1c0,2.3,0,4.6,0,6.9H46c0-0.3,0-0.5,0-0.7c1-3.3,4.7-5.7,9.2-6
		c1.1-0.1,2-0.3,1.9-1.3c-0.1-1-1-1.1-2.1-1.1c-3.1,0.1-5.8,1-8,2.7c-2.4,1.7-3.7,3.9-4.3,6.5c-0.7,0-1.3-0.1-1.9-0.1
		c0-10.2,0-20.3,0-30.4c0-0.4,0.5-1,0.9-1.3c1.9-1.5,2.3-3.9,0.4-5.1c-1.9-1.2-1.4-2.4-0.8-3.7c0.3-0.7,0.7-1.3,0.9-2
		c0.1-0.3,0.2-0.6,0-0.8c-1.3-1.5-2.6-3-3.8-4.3c-1.1,1.4-2.5,3.1-3.8,4.8c0.5,1.2,1,2.5,1.5,3.8c0.3,0.8,0.1,1.3-0.7,1.8
		c-2.2,1.5-2.3,4-0.2,5.5c0.8,0.6,1,1.2,1,2c0,9.5,0,19.1,0,28.6c0,0.4,0,0.8,0,1.3h-2.2c-0.2-0.6-0.3-1.1-0.5-1.6
		c-1.5-4.2-6.7-7.5-12-7.5c-1,0-1.8,0.2-1.9,1.1c-0.1,0.9,0.8,1.2,1.8,1.3c0.3,0,0.7,0,1,0.1c4.4,0.4,8,3.3,8.4,6.6H18.2
		c-0.1-0.2-0.1-0.3-0.1-0.4c0-10,0-20.1,0-30.1c0-0.4,0.4-0.9,0.8-1.2c2.3-1.8,2.2-4.1-0.1-5.9c-0.4-0.3-0.8-1.1-0.6-1.6
		C18.6,7.4,19.2,6,19.7,5C18.3,3.1,17,1.5,15.9,0c-1.2,1.5-2.5,3.2-3.8,4.9c0.5,1.1,1,2.5,1.5,3.8c0.3,0.7,0.1,1.3-0.7,1.8
		c-2.2,1.4-2.3,3.9-0.3,5.4c0.9,0.7,1.1,1.4,1.1,2.3c0,26.7,0,53.4,0,80.1v1.6h4.4V50.2h13c-0.6,3.8-4.2,6.4-9.3,6.8
		c-1.1,0.1-2,0.3-1.9,1.3c0.1,1,1,1.2,2.1,1.1c5.5-0.4,9.3-2.6,11.4-6.6c0.4-0.8,0.6-1.7,0.9-2.5h2.2V100h4.4c0-3,0-5.9,0-8.9
		c0-13.3,0-26.6,0-39.8c0-1.3,0.7-1.4,1.9-1.1c0.2,0.5,0.3,1,0.4,1.5c1.5,4.3,6,7.3,11.6,7.6c1.1,0.1,2.1,0,2.2-1.1
		c0.1-1-0.9-1.1-1.9-1.3c-1.6-0.2-3.2-0.5-4.6-1.1c-2.7-1.2-4.2-3.1-4.8-5.6h13.3V100h4.5V50.2h13.3c0,0.2,0,0.4,0,0.5
		c-0.8,3.4-4.4,5.9-9.3,6.3c-1.1,0.1-2,0.3-1.9,1.3c0.1,1,1.1,1.2,2.1,1.1c0.9-0.1,1.8-0.2,2.6-0.4c5-1.2,8.1-3.8,9.3-7.8
		c0.1-0.3,0.2-0.7,0.4-1c0.6,0,1.1,0,1.7,0.1V100h4.5c0-0.6,0-1.1,0-1.6c0-15.6,0-31.1,0-46.7C86.5,50.3,86.7,47.9,86.7,47.9z"/>
	<rect x="8.6" y="20.9" class="st0" width="3.6" height="2.9"/>
	<rect x="87.7" y="20.9" class="st0" width="3.6" height="2.9"/>
	<rect x="8.6" y="87.7" class="st0" width="3.6" height="2.9"/>
	<rect x="87.7" y="87.7" class="st0" width="3.6" height="2.9"/>
	<path class="st0" d="M86.5,17.4c0-0.4,0.3-0.8,0.7-1.1c2.4-1.9,2.4-4.1-0.1-6c-0.4-0.3-0.7-1-0.6-1.4c0.4-1.5,1-2.9,1.4-4
		c-1.4-1.8-2.6-3.5-3.7-4.9c-1.2,1.5-2.5,3.2-3.8,4.9c0.5,1.2,0.9,2.6,1.5,3.9c0.3,0.7,0.1,1.2-0.7,1.7c-2.4,1.6-2.3,4-0.2,5.7
		c0.5,0.4,0.8,1,0.8,1.6c0.1,9.5,0,19,0,28.5c0,0.5,0,1,0,1.6h-1.7c-1.2-5.1-5.7-8.7-11.4-9.1c-1.2-0.1-2.8-0.4-2.9,1.1
		c-0.1,1.4,1.4,1.2,2.6,1.3c4.4,0.4,8.3,3.4,8.5,6.7H63.7c0-1.1,0-2.2,0-3.2c0-9,0-17.9,0-26.9c0-0.6,0.4-1.3,0.9-1.7
		c1.8-1.5,2.2-3.9,0.3-5.1c-1.8-1.2-1.4-2.3-0.9-3.6C64.5,6.5,65,5.7,65.3,5c-1.4-1.9-2.7-3.5-3.8-5c-1.2,1.6-2.5,3.2-3.8,4.9
		c0.5,1.2,0.9,2.5,1.5,3.8c0.3,0.8,0.1,1.3-0.7,1.8c-2.3,1.6-2.2,4-0.1,5.7c0.5,0.4,0.9,1.1,0.9,1.7c0.1,7.7,0,15.4,0,23.1
		c0,2.3,0,4.6,0,6.9H46c0-0.3,0-0.5,0-0.7c1-3.3,4.7-5.7,9.2-6c1.1-0.1,2-0.3,1.9-1.3c-0.1-1-1-1.1-2.1-1.1c-3.1,0.1-5.8,1-8,2.7
		c-2.4,1.7-3.7,3.9-4.3,6.5c-0.7,0-1.3-0.1-1.9-0.1c0-10.2,0-20.3,0-30.4c0-0.4,0.5-1,0.9-1.3c1.9-1.5,2.3-3.9,0.4-5.1
		c-1.9-1.2-1.4-2.4-0.8-3.7c0.3-0.7,0.7-1.3,0.9-2c0.1-0.3,0.2-0.6,0-0.8c-1.3-1.5-2.6-3-3.8-4.3c-1.1,1.4-2.5,3.1-3.8,4.8
		c0.5,1.2,1,2.5,1.5,3.8c0.3,0.8,0.1,1.3-0.7,1.8c-2.2,1.5-2.3,4-0.2,5.5c0.8,0.6,1,1.2,1,2c0,9.5,0,19.1,0,28.6c0,0.4,0,0.8,0,1.3
		h-2.2c-0.2-0.6-0.3-1.1-0.5-1.6c-1.5-4.2-6.7-7.5-12-7.5c-1,0-1.8,0.2-1.9,1.1c-0.1,0.9,0.8,1.2,1.8,1.3c0.3,0,0.7,0,1,0.1
		c4.4,0.4,8,3.3,8.4,6.6H18.2c-0.1-0.2-0.1-0.3-0.1-0.4c0-10,0-20.1,0-30.1c0-0.4,0.4-0.9,0.8-1.2c2.3-1.8,2.2-4.1-0.1-5.9
		c-0.4-0.3-0.8-1.1-0.6-1.6C18.6,7.4,19.2,6,19.7,5C18.3,3.1,17,1.5,15.9,0c-1.2,1.5-2.5,3.2-3.8,4.9c0.5,1.1,1,2.5,1.5,3.8
		c0.3,0.7,0.1,1.3-0.7,1.8c-2.2,1.4-2.3,3.9-0.3,5.4c0.9,0.7,1.1,1.4,1.1,2.3c0,26.7,0,53.4,0,80.1v1.6h4.4V50.2h13
		c-0.6,3.8-4.2,6.4-9.3,6.8c-1.1,0.1-2,0.3-1.9,1.3c0.1,1,1,1.2,2.1,1.1c5.5-0.4,9.3-2.6,11.4-6.6c0.4-0.8,0.6-1.7,0.9-2.5h2.2V100
		h4.4c0-3,0-5.9,0-8.9c0-13.3,0-26.6,0-39.8c0-1.3,0.7-1.4,1.9-1.1c0.2,0.5,0.3,1,0.4,1.5c1.5,4.3,6,7.3,11.6,7.6
		c1.1,0.1,2.1,0,2.2-1.1c0.1-1-0.9-1.1-1.9-1.3c-1.6-0.2-3.2-0.5-4.6-1.1c-2.7-1.2-4.2-3.1-4.8-5.6h13.3V100h4.5V50.2h13.3
		c0,0.2,0,0.4,0,0.5c-0.8,3.4-4.4,5.9-9.3,6.3c-1.1,0.1-2,0.3-1.9,1.3c0.1,1,1.1,1.2,2.1,1.1c0.9-0.1,1.8-0.2,2.6-0.4
		c5-1.2,8.1-3.8,9.3-7.8c0.1-0.3,0.2-0.7,0.4-1c0.6,0,1.1,0,1.7,0.1V100h4.5c0-0.6,0-1.1,0-1.6C86.5,82.8,86.5,27.5,86.5,17.4z"/>
	<path class="st0" d="M35.1,21c0,0.9,0,1.8,0,2.7c-5.2,0-10.4,0-15.7,0c0-0.9,0-1.8,0-2.7C24.6,21,29.8,21,35.1,21z"/>
	<path class="st0" d="M42.3,23.8c0-1,0-1.8,0-2.7c5.2,0,10.4,0,15.6,0c0,0.9,0,1.8,0,2.7C52.7,23.8,47.6,23.8,42.3,23.8z"/>
	<path class="st0" d="M65,23.8c0-1,0-1.8,0-2.8c5.2,0,10.3,0,15.5,0c0,0.9,0,1.8,0,2.8C75.5,23.8,70.3,23.8,65,23.8z"/>
	<path class="st0" d="M42.3,90.4c0-0.9,0-1.8,0-2.7c5.2,0,10.3,0,15.6,0c0,0.9,0,1.8,0,2.7C52.7,90.4,47.6,90.4,42.3,90.4z"/>
	<path class="st0" d="M19.4,90.4c0-0.9,0-1.8,0-2.7c5.2,0,10.4,0,15.6,0c0,0.9,0,1.7,0,2.7C29.9,90.4,24.8,90.4,19.4,90.4z"/>
	<path class="st0" d="M65.1,90.4c0-0.9,0-1.8,0-2.7c5.2,0,10.3,0,15.5,0c0,0.9,0,1.7,0,2.7C75.5,90.4,70.3,90.4,65.1,90.4z"/>
</g>
</svg>
